<svg width="496" height="496" viewBox="0 0 496 496" fill="none" xmlns="http://www.w3.org/2000/svg">
<path fill-rule="evenodd" clip-rule="evenodd" d="M396.33 146.225C399.703 148.045 402.217 151.128 403.321 154.798C403.861 156.614 404.037 158.519 403.839 160.404C403.641 162.288 403.073 164.114 402.167 165.779C401.261 167.443 400.035 168.911 398.56 170.1C397.085 171.29 395.389 172.176 393.571 172.708L383.949 175.56C384.84 189.275 381.526 202.936 374.449 214.718L382.334 221.829C383.822 223.08 385.042 224.619 385.921 226.353C386.799 228.087 387.319 229.981 387.448 231.92C387.577 233.86 387.313 235.806 386.672 237.641C386.031 239.476 385.025 241.163 383.716 242.6C382.407 244.037 380.821 245.195 379.054 246.005C377.287 246.814 375.374 247.258 373.43 247.31C371.487 247.362 369.553 247.021 367.745 246.308C365.937 245.594 364.291 244.523 362.907 243.158L354.784 235.845C346.592 241.593 337.226 245.452 327.362 247.143C323.971 247.796 320.616 248.63 317.314 249.641L320.58 257.021C321.343 258.761 321.757 260.634 321.796 262.533C321.836 264.433 321.501 266.321 320.811 268.091C320.733 268.29 320.651 268.487 320.565 268.681L190.14 138.256C193.153 136.169 196.85 135.295 200.489 135.821C204.283 136.368 207.707 138.393 210.015 141.453L214.89 147.931C226.225 140.437 238.191 133.947 250.654 128.534L248.034 121.191C246.823 117.592 247.076 113.662 248.737 110.247C250.399 106.833 253.336 104.209 256.915 102.941C260.495 101.674 264.429 101.864 267.869 103.471C271.309 105.079 273.979 107.974 275.303 111.533L277.924 118.845C286.796 116.202 295.816 114.084 304.937 112.502C309.432 111.749 313.99 111.449 318.545 111.606L320.836 102.849C321.798 99.1318 324.198 95.9492 327.507 94.0013C330.816 92.0534 334.763 91.4998 338.48 92.4622C342.198 93.4246 345.38 95.8243 347.328 99.1332C349.276 102.442 349.83 106.389 348.867 110.107L346.558 118.924C359.163 125.265 369.489 135.362 376.112 147.821L385.326 145.091C389 143.998 392.957 144.406 396.33 146.225ZM312.931 153.074C319.006 153.074 323.931 148.149 323.931 142.074C323.931 135.999 319.006 131.074 312.931 131.074C306.856 131.074 301.931 135.999 301.931 142.074C301.931 148.149 306.856 153.074 312.931 153.074ZM361.931 189.074C361.931 199.568 353.425 208.074 342.931 208.074C332.438 208.074 323.931 199.568 323.931 189.074C323.931 178.581 332.438 170.074 342.931 170.074C353.425 170.074 361.931 178.581 361.931 189.074Z" fill="black"/>
<path fill-rule="evenodd" clip-rule="evenodd" d="M267.478 319.362L137.981 189.865C137.255 190.521 136.596 191.25 136.015 192.042C134.872 193.6 134.054 195.37 133.609 197.25C133.163 199.129 133.1 201.079 133.422 202.983C133.744 204.888 134.445 206.708 135.483 208.336C136.522 209.965 137.877 211.368 139.468 212.463L146.226 217.375C138.922 228.741 132.618 240.72 127.384 253.176L119.505 250.476C117.707 249.816 115.795 249.521 113.882 249.608C111.969 249.695 110.093 250.163 108.362 250.984C106.632 251.804 105.082 252.962 103.804 254.388C102.526 255.814 101.545 257.481 100.919 259.291C100.293 261.1 100.033 263.017 100.156 264.928C100.278 266.839 100.781 268.707 101.633 270.422C102.486 272.136 103.672 273.664 105.122 274.915C106.572 276.167 108.256 277.116 110.078 277.709L117.999 280.439C115.668 288.564 113.776 296.809 112.332 305.137C111.534 310.247 111.321 315.432 111.698 320.591L102.29 323.37C98.6282 324.461 95.5504 326.963 93.7334 330.324C91.9164 333.685 91.5089 337.63 92.6006 341.291C93.6923 344.953 96.1939 348.031 99.5548 349.848C102.916 351.665 106.861 352.072 110.522 350.98L119.663 348.275C126.297 360.705 136.632 370.765 149.236 377.062L146.89 386.05C146.416 387.884 146.308 389.793 146.572 391.668C146.836 393.544 147.468 395.349 148.43 396.98C149.392 398.612 150.666 400.038 152.179 401.177C153.692 402.316 155.415 403.145 157.249 403.618C158.445 403.92 159.673 404.073 160.905 404.075C164.106 404.082 167.218 403.027 169.754 401.075C172.291 399.123 174.108 396.385 174.921 393.289L177.243 384.374C177.491 384.383 177.741 384.406 177.991 384.433C178.053 384.44 178.115 384.447 178.178 384.454C178.248 384.462 178.319 384.47 178.389 384.479L178.391 384.479C178.85 384.533 179.308 384.587 179.76 384.587C192.959 384.518 205.851 380.595 216.852 373.302L223.829 380.456C226.511 383.12 230.129 384.627 233.908 384.653C237.688 384.68 241.327 383.223 244.045 380.597C246.763 377.971 248.343 374.384 248.446 370.606C248.549 366.828 247.168 363.16 244.597 360.389L237.169 352.772C242.108 345.11 245.447 336.529 246.986 327.544C247.75 323.271 248.8 319.055 250.13 314.924L257.443 318.361C259.159 319.204 261.027 319.698 262.936 319.812C264.466 319.904 265.999 319.751 267.478 319.362ZM173.18 311.396C177.99 314.61 183.645 316.325 189.43 316.325C197.188 316.325 204.628 313.244 210.113 307.758C215.599 302.273 218.68 294.833 218.68 287.075C218.68 281.29 216.965 275.635 213.751 270.825C210.537 266.015 205.969 262.266 200.624 260.052C195.279 257.838 189.398 257.259 183.724 258.387C178.05 259.516 172.838 262.302 168.747 266.392C164.657 270.483 161.871 275.695 160.742 281.369C159.614 287.043 160.193 292.924 162.407 298.269C164.621 303.613 168.37 308.182 173.18 311.396Z" fill="black"/>
<path d="M248 0C111.034 0 0 111.033 0 248C0 384.967 111.034 496 248 496C384.966 496 496 384.966 496 248C496 111.034 384.967 0 248 0ZM378.108 117.892C443.556 183.34 448.108 283.373 398.785 353.529L142.47 97.216C212.674 47.86 312.696 52.481 378.108 117.892ZM117.892 378.108C52.444 312.66 47.892 212.627 97.215 142.471L353.53 398.784C283.327 448.14 183.304 443.52 117.892 378.108Z" fill="black"/>
</svg>
